<?xml version="1.0" encoding="utf-8"?>
<!-- Generator: Adobe Illustrator 19.1.0, SVG Export Plug-In . SVG Version: 6.00 Build 0)  -->
<!DOCTYPE svg PUBLIC "-//W3C//DTD SVG 1.1//EN" "http://www.w3.org/Graphics/SVG/1.1/DTD/svg11.dtd">
<svg version="1.1" xmlns="http://www.w3.org/2000/svg" xmlns:xlink="http://www.w3.org/1999/xlink" x="0px" y="0px"
	 viewBox="-316.4 336.2 972 756" style="enable-background:new -316.4 336.2 972 756;" xml:space="preserve">
<style type="text/css">
	.st0{opacity:0.3;}
	.st1{fill:none;}
	.st2{fill:#FFFFFF;}
	.st3{font-family:'HelveticaNeue-Light';}
	.st4{font-size:58px;}
	.st5{fill:#EE3C2C;}
</style>
<g id="Layer_2">
	<path class="st0" d="M614.7,1092.2h-890c-22.5,0-41-18.5-41-41v-674c0-22.5,18.5-41,41-41h890c22.5,0,41,18.5,41,41v674
		C655.7,1073.7,637.2,1092.2,614.7,1092.2z"/>
	<rect x="-316.4" y="694.2" class="st1" width="972" height="398"/>
	<text transform="matrix(1 0 0 1 -178.0566 735.5712)"><tspan x="0" y="0" class="st2 st3 st4">Velkommen til DokkerMedia</tspan><tspan x="-63.4" y="69.6" class="st2 st3 st4">Med denne appen kan du ta opp </tspan><tspan x="2.3" y="139.2" class="st2 st3 st4">video og lyd som du ønsker </tspan><tspan x="80.2" y="208.8" class="st2 st3 st4">å bruke på dokker.no</tspan></text>
</g>
<g id="Layer_1">
	<g>
		<path class="st2" d="M23.8,473.3c-36.2,0-65.7,29.5-65.7,65.7c0,36.2,29.5,65.7,65.7,65.7c36.2,0,65.7-29.5,65.7-65.7
			C89.5,502.8,60,473.3,23.8,473.3z M23.8,473.3c-36.2,0-65.7,29.5-65.7,65.7"/>
		<path class="st2" d="M213,445.4c1.5-0.3,3.3-0.5,5.1-0.6c1.9-0.1,3.6-0.2,5.1-0.2c1.5,0,3.3,0.1,5.2,0.2c2,0.1,3.7,0.3,5.3,0.6
			v153.9c-1.5,0.3-3.3,0.5-5.3,0.6c-2,0.1-3.7,0.2-5.2,0.2c-1.5,0-3.3-0.1-5.1-0.2c-1.9-0.1-3.6-0.3-5.1-0.6V445.4z M239.5,543.4
			l34.2-51.9c1.8-0.3,3.6-0.5,5.5-0.6c1.8-0.1,3.7-0.2,5.7-0.2c2.1,0,4.1,0.1,6,0.2c1.9,0.1,3.8,0.3,5.8,0.6L262.4,542l40.1,57.3
			c-2,0.3-3.9,0.5-5.7,0.6c-1.8,0.1-3.7,0.2-5.7,0.2c-2,0-3.9-0.1-5.9-0.2c-2-0.1-3.9-0.3-5.9-0.6L239.5,543.4z"/>
		<path class="st2" d="M333.1,550.6c0.3,11.8,3.3,20.4,9.1,25.8c5.8,5.5,14.4,8.2,25.7,8.2c9.9,0,19.4-1.8,28.3-5.2
			c1.1,2.1,2,4.7,2.7,7.7c0.7,3,1.1,6,1.3,8.9c-4.6,2-9.7,3.4-15.2,4.4c-5.5,1-11.7,1.5-18.4,1.5c-9.8,0-18.2-1.4-25.2-4.1
			c-7-2.7-12.8-6.6-17.3-11.5c-4.6-5-7.9-10.8-10-17.6c-2.1-6.8-3.2-14.2-3.2-22.4c0-8,1-15.4,3-22.4c2-6.9,5.1-12.9,9.3-18.1
			c4.2-5.1,9.5-9.2,15.9-12.2c6.4-3,13.9-4.5,22.6-4.5c7.4,0,13.9,1.3,19.5,3.8c5.6,2.5,10.3,6,14.1,10.4c3.8,4.4,6.6,9.7,8.6,15.7
			c2,6.1,2.9,12.7,2.9,19.8c0,2-0.1,4-0.2,6.2c-0.1,2.2-0.3,4-0.4,5.6H333.1z M386.5,535c0-3.9-0.5-7.7-1.6-11.2
			c-1.1-3.6-2.6-6.7-4.6-9.3c-2-2.7-4.6-4.8-7.8-6.4c-3.2-1.6-6.9-2.4-11.2-2.4c-8.5,0-15.1,2.6-19.6,7.8
			c-4.5,5.2-7.3,12.4-8.3,21.6H386.5z"/>
		<path class="st2" d="M434.3,491.6c1.5-0.3,3-0.5,4.4-0.6c1.4-0.1,2.9-0.2,4.4-0.2c1.5,0,3.1,0.1,4.6,0.2c1.5,0.1,2.9,0.3,4.2,0.6
			c0.4,2.1,0.8,4.9,1.3,8.3c0.4,3.4,0.6,6.3,0.6,8.7c2.9-4.8,6.8-8.9,11.7-12.4c4.8-3.5,11-5.2,18.6-5.2c1.1,0,2.3,0,3.5,0.1
			c1.2,0.1,2.2,0.2,3,0.3c0.3,1.3,0.5,2.6,0.6,4c0.1,1.4,0.2,2.9,0.2,4.4c0,1.7-0.1,3.4-0.3,5.2c-0.2,1.8-0.5,3.6-0.7,5.2
			c-1.1-0.3-2.3-0.4-3.5-0.4s-2.1,0-2.8,0c-3.8,0-7.4,0.5-10.8,1.6c-3.4,1-6.5,2.9-9.2,5.6c-2.7,2.7-4.9,6.3-6.5,10.9
			c-1.6,4.6-2.4,10.6-2.4,17.8v53.5c-1.5,0.3-3.3,0.5-5.1,0.6c-1.9,0.1-3.6,0.2-5.1,0.2c-1.5,0-3.3-0.1-5.1-0.2
			c-1.9-0.1-3.7-0.3-5.4-0.6V491.6z"/>
		<path class="st1" d="M-94.3,512.5c-4.6,0-8.7,1-12.1,2.8c-3.4,1.9-6.3,4.4-8.5,7.6c-2.2,3.2-3.9,6.9-4.9,11.1
			c-1.1,4.3-1.6,8.7-1.6,13.4c0,5.8,0.7,10.6,2.1,14.6c1.4,4,3.3,7.2,5.8,9.6c2.5,2.4,5.4,4.1,8.7,5.2c3.4,1.1,7,1.6,10.9,1.6
			c2.4,0,4.6-0.1,6.5-0.3c2-0.2,4.1-0.7,6.5-1.4v-62.5c-2.8-0.7-5.1-1.2-6.8-1.4C-89.4,512.6-91.6,512.5-94.3,512.5z"/>
		<path class="st2" d="M-51.2,504.8v-58.2c-2.5-0.4-5.1-0.7-7.6-0.8c-2.5-0.1-5-0.2-7.4-0.2c-2.4,0-4.8,0.1-7.3,0.2
			c-2.5,0.1-4.9,0.4-7.5,0.8v44.6c-2.5-0.7-5.2-1.2-7.9-1.4c-2.7-0.2-5.4-0.3-7.9-0.3c-8.4,0-16.1,1.5-22.9,4.5
			c-6.9,3-12.7,7.1-17.6,12.3c-4.8,5.2-8.6,11.3-11.2,18.4c-2.6,7.1-3.9,14.6-3.9,22.6c0,10.1,1.5,18.7,4.5,25.7
			c3,7,7.1,12.7,12.3,17.1c5.2,4.4,11.2,7.7,18,9.7c6.8,2,13.9,3,21.4,3c9.7,0,17.9-0.5,24.7-1.6c6.8-1,13.5-2.6,20.1-4.5v-24.1
			c-4.7-10.4-7.4-21.9-7.4-34C-58.5,526.7-55.9,515.2-51.2,504.8z M-80.8,576.6c-2.4,0.7-4.6,1.2-6.5,1.4c-2,0.2-4.1,0.3-6.5,0.3
			c-3.9,0-7.6-0.5-10.9-1.6c-3.4-1.1-6.3-2.8-8.7-5.2c-2.5-2.4-4.4-5.6-5.8-9.6c-1.4-4-2.1-8.9-2.1-14.6c0-4.6,0.5-9.1,1.6-13.4
			c1.1-4.3,2.7-8,4.9-11.1c2.2-3.2,5.1-5.7,8.5-7.6c3.4-1.9,7.5-2.8,12.1-2.8c2.7,0,4.9,0.1,6.6,0.3c1.8,0.2,4,0.7,6.8,1.4V576.6z"
			/>
		<path class="st2" d="M163,541.9l27.8-50.3c-5-0.8-10.2-1.3-15.6-1.3c-5.6,0-11.1,0.4-16.6,1.3l-26.9,51.8l31.6,57
			c5.5,0.8,10.7,1.3,15.6,1.3c5.3,0,10.9-0.4,16.6-1.3L163,541.9z"/>
		<path class="st2" d="M97.8,446.6v56.3c5.3,10.8,8.2,23,8.2,35.9c0,12.8-3,25-8.2,35.8v25.8c4.8,0.8,9.7,1.3,14.7,1.3
			c5.1,0,10-0.4,14.9-1.3V446.6c-4.9-0.8-9.9-1.3-14.9-1.3C107.5,445.3,102.6,445.8,97.8,446.6z"/>
		<path class="st5" d="M23.8,473.3c-36.2,0-65.7,29.5-65.7,65.7c0,36.2,29.5,65.7,65.7,65.7c36.2,0,65.7-29.5,65.7-65.7
			C89.5,502.8,60,473.3,23.8,473.3z M23.8,473.3c-36.2,0-65.7,29.5-65.7,65.7 M49.9,574.1H-4.1c0-4.3,0.6-8,1.8-11.2
			c1.2-3.2,2.9-6,5-8.5c2.1-2.5,4.6-4.8,7.4-6.9c2.8-2.1,5.8-4.2,9-6.4c1.6-1.1,3.3-2.3,5.2-3.4c1.8-1.2,3.5-2.4,5-3.8
			c1.5-1.4,2.8-3,3.8-4.7c1-1.8,1.5-3.8,1.5-6c0-3.6-1-6.4-3.1-8.4c-2.1-2-4.7-3-7.9-3c-2.2,0-4,0.5-5.5,1.5c-1.5,1-2.7,2.4-3.6,4
			c-0.9,1.6-1.6,3.5-1.9,5.5c-0.4,2-0.6,4-0.6,5.9H-2.5c-0.1-4.2,0.3-8.1,1.5-11.7c1.1-3.6,2.8-6.8,5-9.5c2.2-2.7,5.1-4.8,8.5-6.3
			c3.4-1.5,7.3-2.3,11.7-2.3c3.4,0,6.6,0.5,9.6,1.6c3.1,1.1,5.7,2.6,8,4.5c2.3,2,4.2,4.4,5.5,7.3c1.4,2.9,2.1,6.1,2.1,9.7
			c0,3.7-0.6,6.9-1.8,9.6c-1.2,2.7-2.8,5-4.7,7.1c-2,2.1-4.2,3.9-6.7,5.6c-2.5,1.7-5,3.4-7.5,5c-2.5,1.6-5,3.4-7.4,5.3
			c-2.4,1.9-4.5,4.1-6.3,6.6h34.8V574.1z"/>
	</g>
</g>
</svg>
